<mxfile host="65bd71144e">
    <diagram name="Page-1" id="71hhgT6nfiHDWO6UgkDM">
        <mxGraphModel dx="1135" dy="164" grid="1" gridSize="10" guides="1" tooltips="1" connect="1" arrows="1" fold="1" page="1" pageScale="1" pageWidth="850" pageHeight="1100" math="0" shadow="0">
            <root>
                <mxCell id="0"/>
                <mxCell id="1" parent="0"/>
                <mxCell id="kUmWNInl1JWP7ZCi-R_K-1" value="&lt;div style=&quot;text-align: justify;&quot;&gt;&lt;font style=&quot;font-size: 14px;&quot;&gt;_id:ObjectId&lt;/font&gt;&lt;/div&gt;&lt;div style=&quot;text-align: justify;&quot;&gt;&lt;font style=&quot;font-size: 14px;&quot;&gt;name:String&lt;/font&gt;&lt;/div&gt;&lt;div style=&quot;text-align: justify;&quot;&gt;&lt;font size=&quot;3&quot; style=&quot;&quot;&gt;email:String&lt;/font&gt;&lt;/div&gt;&lt;div style=&quot;text-align: justify;&quot;&gt;&lt;font size=&quot;3&quot; style=&quot;&quot;&gt;password:String&lt;/font&gt;&lt;/div&gt;&lt;div style=&quot;text-align: justify;&quot;&gt;&lt;font size=&quot;3&quot; style=&quot;&quot;&gt;role:enum[&#39;ADMIN&#39;,&#39;DOCTOR&#39;&lt;/font&gt;&lt;/div&gt;&lt;div style=&quot;text-align: justify;&quot;&gt;&lt;font size=&quot;3&quot; style=&quot;&quot;&gt;&#39;RECEPTIONSIT&#39;,&#39;NURSE&#39;]&lt;/font&gt;&lt;/div&gt;" style="whiteSpace=wrap;html=1;aspect=fixed;align=center;" parent="1" vertex="1">
                    <mxGeometry x="120" y="60" width="220" height="220" as="geometry"/>
                </mxCell>
                <mxCell id="kUmWNInl1JWP7ZCi-R_K-15" value="&lt;span style=&quot;font-size: 18px;&quot;&gt;User&lt;/span&gt;" style="text;html=1;align=center;verticalAlign=middle;resizable=0;points=[];autosize=1;strokeColor=none;fillColor=none;" parent="1" vertex="1">
                    <mxGeometry x="200" y="20" width="60" height="40" as="geometry"/>
                </mxCell>
                <mxCell id="kUmWNInl1JWP7ZCi-R_K-16" value="&lt;div&gt;&lt;font style=&quot;font-size: 14px;&quot;&gt;_id:ObjectId&lt;/font&gt;&lt;/div&gt;&lt;font style=&quot;font-size: 14px;&quot;&gt;name:String&lt;/font&gt;&lt;div&gt;&lt;font style=&quot;font-size: 14px;&quot;&gt;species:String&lt;/font&gt;&lt;/div&gt;&lt;div&gt;&lt;font style=&quot;font-size: 14px;&quot;&gt;breed:String&lt;/font&gt;&lt;/div&gt;&lt;div&gt;&lt;font style=&quot;font-size: 14px;&quot;&gt;age:Number&lt;/font&gt;&lt;/div&gt;&lt;div&gt;&lt;font style=&quot;font-size: 14px;&quot;&gt;weight:Number&lt;/font&gt;&lt;/div&gt;&lt;div&gt;&lt;font style=&quot;font-size: 14px;&quot;&gt;gender:enum[&#39;MALE&#39;,&lt;/font&gt;&lt;/div&gt;&lt;div&gt;&lt;font style=&quot;font-size: 14px;&quot;&gt;&#39;FEMALE&#39;]&lt;/font&gt;&lt;/div&gt;&lt;div&gt;&lt;font style=&quot;font-size: 14px;&quot;&gt;medicalHistory:String&lt;/font&gt;&lt;/div&gt;&lt;div&gt;&lt;font style=&quot;font-size: 14px;&quot;&gt;BMI:Number&lt;/font&gt;&lt;/div&gt;&lt;div&gt;&lt;font style=&quot;font-size: 14px;&quot;&gt;bloodGroup:enum[&#39;&lt;/font&gt;&lt;span style=&quot;background-color: transparent; color: light-dark(rgb(0, 0, 0), rgb(255, 255, 255));&quot;&gt;&lt;font style=&quot;font-size: 14px;&quot;&gt;DEA 1.1&#39;+&#39;,&#39;&lt;/font&gt;&lt;/span&gt;&lt;span style=&quot;background-color: transparent; color: light-dark(rgb(0, 0, 0), rgb(255, 255, 255));&quot;&gt;&lt;font style=&quot;font-size: 14px;&quot;&gt;DEA 1.1-&#39;,&#39;&lt;/font&gt;&lt;/span&gt;&lt;/div&gt;&lt;div&gt;&lt;font style=&quot;font-size: 14px;&quot;&gt;DEA 1.2+&#39;,&#39;&lt;span style=&quot;background-color: transparent; color: light-dark(rgb(0, 0, 0), rgb(255, 255, 255));&quot;&gt;&lt;/span&gt;&lt;span style=&quot;background-color: transparent; color: light-dark(rgb(0, 0, 0), rgb(255, 255, 255));&quot;&gt;DEA 1.2-&#39;,&#39;&lt;/span&gt;&lt;span style=&quot;background-color: transparent; color: light-dark(rgb(0, 0, 0), rgb(255, 255, 255));&quot;&gt;DEA 3&quot;,&#39;&lt;/span&gt;&lt;span style=&quot;background-color: transparent; color: light-dark(rgb(0, 0, 0), rgb(255, 255, 255));&quot;&gt;DEA&#39;4&#39;,&#39;&lt;/span&gt;&lt;span style=&quot;background-color: transparent; color: light-dark(rgb(0, 0, 0), rgb(255, 255, 255));&quot;&gt;DEA 5&#39;,&#39;&lt;/span&gt;&lt;span style=&quot;background-color: transparent; color: light-dark(rgb(0, 0, 0), rgb(255, 255, 255));&quot;&gt;DEA 7&#39;,&#39;A&#39;,&#39;B&#39;,&#39;AB&#39;]&lt;/span&gt;&lt;/font&gt;&lt;/div&gt;&lt;div&gt;&lt;font style=&quot;font-size: 14px;&quot;&gt;&lt;span style=&quot;background-color: transparent; color: light-dark(rgb(0, 0, 0), rgb(255, 255, 255));&quot;&gt;&lt;br&gt;&lt;/span&gt;&lt;/font&gt;&lt;/div&gt;" style="whiteSpace=wrap;html=1;aspect=fixed;" parent="1" vertex="1">
                    <mxGeometry x="437.5" y="50" width="325" height="325" as="geometry"/>
                </mxCell>
                <mxCell id="kUmWNInl1JWP7ZCi-R_K-32" value="&lt;font style=&quot;font-size: 18px;&quot;&gt;Patient&lt;/font&gt;" style="text;html=1;align=center;verticalAlign=middle;resizable=0;points=[];autosize=1;strokeColor=none;fillColor=none;" parent="1" vertex="1">
                    <mxGeometry x="540" y="10" width="80" height="40" as="geometry"/>
                </mxCell>
                <mxCell id="kUmWNInl1JWP7ZCi-R_K-33" value="&lt;div&gt;&lt;font style=&quot;font-size: 14px;&quot;&gt;_id:ObjectId&lt;/font&gt;&lt;/div&gt;&lt;font style=&quot;font-size: 14px;&quot;&gt;petId&lt;/font&gt;:&lt;font style=&quot;font-size: 14px;&quot;&gt;ObjectId&lt;/font&gt;&lt;div&gt;&lt;font style=&quot;font-size: 14px;&quot;&gt;doctorId:ObjectId&lt;/font&gt;&lt;/div&gt;&lt;div&gt;&lt;font style=&quot;font-size: 14px;&quot;&gt;date:Date&lt;/font&gt;&lt;/div&gt;&lt;div&gt;&lt;font style=&quot;font-size: 14px;&quot;&gt;schedule:enum[&#39;SCHEDULED&#39;,&lt;/font&gt;&lt;/div&gt;&lt;div&gt;&lt;font style=&quot;font-size: 14px;&quot;&gt;&#39;COMPLETED&#39;,&#39;CANCELLED&#39;]&lt;/font&gt;&lt;/div&gt;&lt;div&gt;&lt;font style=&quot;font-size: 14px;&quot;&gt;&lt;br&gt;&lt;/font&gt;&lt;/div&gt;" style="whiteSpace=wrap;html=1;aspect=fixed;" parent="1" vertex="1">
                    <mxGeometry x="110" y="460" width="200" height="200" as="geometry"/>
                </mxCell>
                <mxCell id="kUmWNInl1JWP7ZCi-R_K-47" style="edgeStyle=orthogonalEdgeStyle;rounded=0;orthogonalLoop=1;jettySize=auto;html=1;entryX=0.5;entryY=0;entryDx=0;entryDy=0;" parent="1" source="kUmWNInl1JWP7ZCi-R_K-35" target="kUmWNInl1JWP7ZCi-R_K-33" edge="1">
                    <mxGeometry relative="1" as="geometry"/>
                </mxCell>
                <mxCell id="kUmWNInl1JWP7ZCi-R_K-48" value="" style="edgeStyle=orthogonalEdgeStyle;rounded=0;orthogonalLoop=1;jettySize=auto;html=1;" parent="1" source="kUmWNInl1JWP7ZCi-R_K-35" target="kUmWNInl1JWP7ZCi-R_K-33" edge="1">
                    <mxGeometry relative="1" as="geometry"/>
                </mxCell>
                <mxCell id="kUmWNInl1JWP7ZCi-R_K-35" value="&lt;font style=&quot;font-size: 18px;&quot;&gt;Appointment&lt;/font&gt;&lt;div&gt;&lt;br&gt;&lt;/div&gt;" style="text;html=1;align=center;verticalAlign=middle;resizable=0;points=[];autosize=1;strokeColor=none;fillColor=none;" parent="1" vertex="1">
                    <mxGeometry x="150" y="410" width="120" height="50" as="geometry"/>
                </mxCell>
                <mxCell id="kUmWNInl1JWP7ZCi-R_K-36" value="&lt;div&gt;&lt;font style=&quot;font-size: 14px;&quot;&gt;&lt;font style=&quot;&quot;&gt;_id:objectId&lt;/font&gt;&lt;/font&gt;&lt;/div&gt;&lt;font style=&quot;font-size: 14px;&quot;&gt;&lt;font style=&quot;&quot;&gt;patientId&lt;/font&gt;:&lt;font style=&quot;&quot;&gt;ObjectId&lt;/font&gt;&lt;/font&gt;&lt;div&gt;&lt;font size=&quot;3&quot; style=&quot;&quot;&gt;doctorId:ObjectId&lt;/font&gt;&lt;/div&gt;&lt;div&gt;&lt;font size=&quot;3&quot; style=&quot;&quot;&gt;&lt;span class=&quot;hljs-attr&quot;&gt;diagnosis&lt;/span&gt;: S&lt;span class=&quot;hljs-built_in&quot;&gt;tring&lt;/span&gt;&lt;/font&gt;&lt;/div&gt;&lt;div&gt;&lt;font size=&quot;3&quot; style=&quot;&quot;&gt;&lt;span class=&quot;hljs-attr&quot;&gt;treatment&lt;/span&gt;: S&lt;span class=&quot;hljs-built_in&quot;&gt;tring&lt;/span&gt;&lt;/font&gt;&lt;/div&gt;&lt;div&gt;&lt;font size=&quot;3&quot; style=&quot;&quot;&gt;&lt;span class=&quot;hljs-attr&quot;&gt;prescription&lt;/span&gt;: S&lt;span class=&quot;hljs-built_in&quot;&gt;tring&lt;/span&gt;&lt;/font&gt;&lt;/div&gt;&lt;div&gt;&lt;font size=&quot;3&quot; style=&quot;&quot;&gt;&lt;span style=&quot;&quot; class=&quot;hljs-attr&quot;&gt;visitDate&lt;/span&gt;: &lt;span style=&quot;&quot; class=&quot;hljs-title class_&quot;&gt;Date&lt;/span&gt;&lt;/font&gt;&lt;/div&gt;" style="whiteSpace=wrap;html=1;aspect=fixed;align=center;" parent="1" vertex="1">
                    <mxGeometry x="880" y="50" width="220" height="220" as="geometry"/>
                </mxCell>
                <mxCell id="kUmWNInl1JWP7ZCi-R_K-37" value="&lt;div&gt;&lt;span style=&quot;font-size: 18px;&quot;&gt;folllowUp&lt;/span&gt;&lt;/div&gt;" style="text;html=1;align=center;verticalAlign=middle;whiteSpace=wrap;rounded=0;" parent="1" vertex="1">
                    <mxGeometry x="950" y="15" width="60" height="30" as="geometry"/>
                </mxCell>
                <mxCell id="kUmWNInl1JWP7ZCi-R_K-38" value="&lt;div&gt;&lt;font style=&quot;font-size: 14px;&quot;&gt;_id:ObjectId&lt;/font&gt;&lt;/div&gt;&lt;font style=&quot;font-size: 14px;&quot;&gt;appointmentId:ObjectId&lt;/font&gt;&lt;div&gt;&lt;font style=&quot;font-size: 14px;&quot;&gt;amount:Number&lt;/font&gt;&lt;/div&gt;&lt;div&gt;&lt;font style=&quot;font-size: 14px;&quot;&gt;paymentStatus:enum[&#39;PENDING&#39;&lt;/font&gt;&lt;/div&gt;&lt;div&gt;&lt;font style=&quot;font-size: 14px;&quot;&gt;&#39;PAID&#39;,&#39;CANCELLED&#39;]&lt;/font&gt;&lt;/div&gt;&lt;div&gt;&lt;span style=&quot;font-size: 14px;&quot;&gt;reference_no:String&lt;/span&gt;&lt;/div&gt;&lt;div&gt;&lt;font style=&quot;font-size: 14px;&quot;&gt;&lt;br&gt;&lt;/font&gt;&lt;/div&gt;" style="whiteSpace=wrap;html=1;aspect=fixed;" parent="1" vertex="1">
                    <mxGeometry x="360" y="470" width="220" height="220" as="geometry"/>
                </mxCell>
                <mxCell id="kUmWNInl1JWP7ZCi-R_K-39" value="&lt;div&gt;&lt;span style=&quot;font-size: 18px;&quot;&gt;Payments&lt;/span&gt;&lt;/div&gt;" style="text;html=1;align=center;verticalAlign=middle;whiteSpace=wrap;rounded=0;" parent="1" vertex="1">
                    <mxGeometry x="430" y="420" width="60" height="30" as="geometry"/>
                </mxCell>
                <mxCell id="kUmWNInl1JWP7ZCi-R_K-42" value="&lt;div&gt;&lt;font size=&quot;3&quot;&gt;_id:ObjectId&lt;/font&gt;&lt;/div&gt;&lt;font size=&quot;3&quot;&gt;name:String&lt;/font&gt;&lt;div&gt;&lt;font size=&quot;3&quot;&gt;price:Number&lt;/font&gt;&lt;/div&gt;&lt;div&gt;&lt;font size=&quot;3&quot;&gt;quantity:Number&lt;/font&gt;&lt;/div&gt;" style="whiteSpace=wrap;html=1;aspect=fixed;" parent="1" vertex="1">
                    <mxGeometry x="800" y="460" width="230" height="230" as="geometry"/>
                </mxCell>
                <mxCell id="kUmWNInl1JWP7ZCi-R_K-43" value="&lt;font style=&quot;font-size: 18px;&quot;&gt;Inventory&lt;/font&gt;" style="text;html=1;align=center;verticalAlign=middle;whiteSpace=wrap;rounded=0;" parent="1" vertex="1">
                    <mxGeometry x="850" y="420" width="60" height="30" as="geometry"/>
                </mxCell>
                <mxCell id="kUmWNInl1JWP7ZCi-R_K-45" value="Text" style="text;html=1;align=center;verticalAlign=middle;resizable=0;points=[];autosize=1;strokeColor=none;fillColor=none;" parent="1" vertex="1">
                    <mxGeometry x="-370" y="300" width="50" height="30" as="geometry"/>
                </mxCell>
                <mxCell id="kUmWNInl1JWP7ZCi-R_K-46" value="_id:ObjectId&lt;div&gt;petId:ObjectId&lt;/div&gt;&lt;div&gt;receptionistId:ObjectId&lt;/div&gt;&lt;div&gt;doctorId:ObjectId&lt;/div&gt;&lt;div&gt;totalAmount:Number&lt;/div&gt;&lt;div&gt;billItems:Object[]{&lt;/div&gt;&lt;div&gt;name:String,&lt;/div&gt;&lt;div&gt;Description:String,&lt;/div&gt;&lt;div&gt;Quantity:Number,&lt;/div&gt;&lt;div&gt;price:Number&lt;/div&gt;&lt;div&gt;Amount:Number&lt;/div&gt;&lt;div&gt;}&lt;/div&gt;" style="whiteSpace=wrap;html=1;aspect=fixed;shadow=1;" parent="1" vertex="1">
                    <mxGeometry x="1300" y="80" width="290" height="290" as="geometry"/>
                </mxCell>
                <mxCell id="kUmWNInl1JWP7ZCi-R_K-51" value="&lt;font style=&quot;font-size: 18px;&quot;&gt;Billing&lt;/font&gt;" style="text;html=1;align=center;verticalAlign=middle;whiteSpace=wrap;rounded=0;" parent="1" vertex="1">
                    <mxGeometry x="1390" y="20" width="60" height="30" as="geometry"/>
                </mxCell>
                <mxCell id="kUmWNInl1JWP7ZCi-R_K-53" value="_id:ObjectId&lt;div&gt;userId:ObjectId&lt;/div&gt;&lt;div&gt;token:String&lt;/div&gt;&lt;div&gt;createdAt:Date&lt;/div&gt;" style="whiteSpace=wrap;html=1;aspect=fixed;" parent="1" vertex="1">
                    <mxGeometry x="1310" y="500" width="200" height="200" as="geometry"/>
                </mxCell>
                <mxCell id="kUmWNInl1JWP7ZCi-R_K-54" value="&lt;font style=&quot;font-size: 18px;&quot;&gt;accessToken&lt;/font&gt;" style="text;html=1;align=center;verticalAlign=middle;whiteSpace=wrap;rounded=0;" parent="1" vertex="1">
                    <mxGeometry x="1370" y="460" width="60" height="30" as="geometry"/>
                </mxCell>
                <mxCell id="kUmWNInl1JWP7ZCi-R_K-55" value="&lt;meta charset=&quot;utf-8&quot;&gt;&lt;span style=&quot;color: rgb(0, 0, 0); font-family: Helvetica; font-size: 12px; font-style: normal; font-variant-ligatures: normal; font-variant-caps: normal; font-weight: 400; letter-spacing: normal; orphans: 2; text-align: center; text-indent: 0px; text-transform: none; widows: 2; word-spacing: 0px; -webkit-text-stroke-width: 0px; white-space: normal; background-color: rgb(251, 251, 251); text-decoration-thickness: initial; text-decoration-style: initial; text-decoration-color: initial; display: inline !important; float: none;&quot;&gt;_id:ObjectId&lt;/span&gt;&lt;div style=&quot;forced-color-adjust: none; color: rgb(0, 0, 0); font-family: Helvetica; font-size: 12px; font-style: normal; font-variant-ligatures: normal; font-variant-caps: normal; font-weight: 400; letter-spacing: normal; orphans: 2; text-align: center; text-indent: 0px; text-transform: none; widows: 2; word-spacing: 0px; -webkit-text-stroke-width: 0px; white-space: normal; background-color: rgb(251, 251, 251); text-decoration-thickness: initial; text-decoration-style: initial; text-decoration-color: initial;&quot;&gt;userId:ObjectId&lt;/div&gt;&lt;div style=&quot;forced-color-adjust: none; color: rgb(0, 0, 0); font-family: Helvetica; font-size: 12px; font-style: normal; font-variant-ligatures: normal; font-variant-caps: normal; font-weight: 400; letter-spacing: normal; orphans: 2; text-align: center; text-indent: 0px; text-transform: none; widows: 2; word-spacing: 0px; -webkit-text-stroke-width: 0px; white-space: normal; background-color: rgb(251, 251, 251); text-decoration-thickness: initial; text-decoration-style: initial; text-decoration-color: initial;&quot;&gt;token:String&lt;/div&gt;&lt;div style=&quot;forced-color-adjust: none; color: rgb(0, 0, 0); font-family: Helvetica; font-size: 12px; font-style: normal; font-variant-ligatures: normal; font-variant-caps: normal; font-weight: 400; letter-spacing: normal; orphans: 2; text-align: center; text-indent: 0px; text-transform: none; widows: 2; word-spacing: 0px; -webkit-text-stroke-width: 0px; white-space: normal; background-color: rgb(251, 251, 251); text-decoration-thickness: initial; text-decoration-style: initial; text-decoration-color: initial;&quot;&gt;craetedAt:Date&lt;/div&gt;" style="whiteSpace=wrap;html=1;aspect=fixed;" parent="1" vertex="1">
                    <mxGeometry x="1275" y="810" width="180" height="180" as="geometry"/>
                </mxCell>
                <mxCell id="kUmWNInl1JWP7ZCi-R_K-56" value="refreshToken" style="text;html=1;align=center;verticalAlign=middle;resizable=0;points=[];autosize=1;strokeColor=none;fillColor=none;" parent="1" vertex="1">
                    <mxGeometry x="1310" y="768" width="90" height="30" as="geometry"/>
                </mxCell>
                <mxCell id="kUmWNInl1JWP7ZCi-R_K-57" value="_id:ObjectId&lt;div&gt;userId:ObjectId&lt;/div&gt;&lt;div&gt;email:String&lt;/div&gt;&lt;div&gt;phone:String&lt;/div&gt;&lt;div&gt;createdAt:Date&lt;/div&gt;&lt;div&gt;expiresAt:Date&lt;/div&gt;" style="whiteSpace=wrap;html=1;aspect=fixed;" parent="1" vertex="1">
                    <mxGeometry x="920" y="800" width="190" height="190" as="geometry"/>
                </mxCell>
                <mxCell id="kUmWNInl1JWP7ZCi-R_K-58" value="&lt;font style=&quot;font-size: 18px;&quot;&gt;otp&lt;/font&gt;&lt;div&gt;&lt;br&gt;&lt;/div&gt;" style="text;html=1;align=center;verticalAlign=middle;whiteSpace=wrap;rounded=0;" parent="1" vertex="1">
                    <mxGeometry x="990" y="768" width="60" height="30" as="geometry"/>
                </mxCell>
            </root>
        </mxGraphModel>
    </diagram>
</mxfile>